<svg width="45" height="44" viewBox="0 0 45 44" fill="none" xmlns="http://www.w3.org/2000/svg">
<path d="M42.7815 32.4467L28.0156 5.30311C25.6432 1.30917 19.86 1.30386 17.4844 5.30311L2.71919 32.4467C0.293977 36.5278 3.23018 41.6958 7.98355 41.6958H37.5159C42.2653 41.6958 45.2067 36.532 42.7815 32.4467ZM22.75 36.7974C21.3998 36.7974 20.3008 35.6983 20.3008 34.3482C20.3008 32.998 21.3998 31.8989 22.75 31.8989C24.1001 31.8989 25.1992 32.998 25.1992 34.3482C25.1992 35.6983 24.1001 36.7974 22.75 36.7974ZM25.1992 27.0005C25.1992 28.3507 24.1001 29.4497 22.75 29.4497C21.3998 29.4497 20.3008 28.3507 20.3008 27.0005V14.7544C20.3008 13.4042 21.3998 12.3052 22.75 12.3052C24.1001 12.3052 25.1992 13.4042 25.1992 14.7544V27.0005Z" fill="#108F1E"/>
</svg>
