<svg width="45" height="44" viewBox="0 0 45 44" fill="none" xmlns="http://www.w3.org/2000/svg">
<path fill-rule="evenodd" clip-rule="evenodd" d="M35.7079 22.4138L35.1153 25.3728C35.0005 25.9477 34.7644 26.4915 34.4228 26.9678C34.0811 27.4442 33.6417 27.8422 33.1339 28.1352L16.3617 37.8179C15.4143 38.3649 14.2884 38.5132 13.2317 38.23C12.1749 37.9469 11.274 37.2556 10.7269 36.3082L4.07882 24.7926C3.53184 23.8451 3.38361 22.7192 3.66674 21.6625C3.94987 20.6058 4.64117 19.7048 5.58857 19.1578L22.3608 9.47507C22.8684 9.18205 23.4327 9.00057 24.0159 8.94272C24.5992 8.88487 25.188 8.95197 25.7433 9.13957L25.8478 9.17394C24.9085 10.5292 24.3086 12.0903 24.0985 13.7258C23.8884 15.3613 24.0743 17.0234 24.6406 18.5721C24.7773 18.8994 25.0352 19.1614 25.3605 19.3032C25.6857 19.445 26.0531 19.4557 26.3861 19.3332C26.719 19.2106 26.9918 18.9642 27.1474 18.6453C27.3031 18.3265 27.3296 17.9599 27.2214 17.6219C26.6118 15.9557 26.6099 14.1277 27.2161 12.4602C27.8224 10.7927 28.9978 9.39273 30.5352 8.50707C32.2635 7.51003 34.3171 7.24006 36.2444 7.75651C38.1717 8.27295 39.8151 9.53354 40.8133 11.2612C41.4112 12.2974 41.7534 13.4613 41.8116 14.6562C41.8698 15.8511 41.6424 17.0427 41.1481 18.1321C40.6539 19.2216 39.907 20.1775 38.9696 20.9207C38.0321 21.6639 36.9309 22.1729 35.7574 22.4056L35.7079 22.4138ZM31.5651 11.1072L34.1308 11.9748C35.0806 12.2958 35.881 12.9518 36.3823 13.82C36.8836 14.6883 37.0515 15.7094 36.8547 16.6924L36.3226 19.3476C36.9213 19.0667 37.4552 18.6646 37.8904 18.1667C38.3257 17.6688 38.6528 17.086 38.8511 16.4551C39.0494 15.8242 39.1145 15.159 39.0423 14.5016C38.9701 13.8443 38.7623 13.209 38.4318 12.6362C38.1011 12.0635 37.655 11.5657 37.1218 11.1744C36.5886 10.7831 35.9799 10.5068 35.3344 10.3631C34.6888 10.2193 34.0204 10.2112 33.3716 10.3393C32.7227 10.4674 32.1076 10.7289 31.5651 11.1072Z" fill="#108F1E"/>
</svg>
