<svg width="37" height="34" viewBox="0 0 37 34" fill="none" xmlns="http://www.w3.org/2000/svg">
<path d="M0.375 11.125V9.0625C0.377001 7.42209 1.02954 5.84943 2.18949 4.68949C3.34943 3.52954 4.92209 2.877 6.5625 2.875H8.625V4.9375C8.625 5.66685 8.91473 6.36632 9.43046 6.88204C9.94618 7.39777 10.6457 7.6875 11.375 7.6875C12.1043 7.6875 12.8038 7.39777 13.3195 6.88204C13.8353 6.36632 14.125 5.66685 14.125 4.9375V2.875H22.375V4.9375C22.375 5.66685 22.6647 6.36632 23.1805 6.88204C23.6962 7.39777 24.3957 7.6875 25.125 7.6875C25.8543 7.6875 26.5538 7.39777 27.0695 6.88204C27.5853 6.36632 27.875 5.66685 27.875 4.9375V2.875H29.9375C31.5779 2.877 33.1506 3.52954 34.3105 4.68949C35.4705 5.84943 36.123 7.42209 36.125 9.0625V11.125H0.375ZM10 4.9375C10 5.30217 10.1449 5.65191 10.4027 5.90977C10.6606 6.16763 11.0103 6.3125 11.375 6.3125C11.7397 6.3125 12.0894 6.16763 12.3473 5.90977C12.6051 5.65191 12.75 5.30217 12.75 4.9375V1.5C12.75 1.13533 12.6051 0.785591 12.3473 0.527728C12.0894 0.269866 11.7397 0.125 11.375 0.125C11.0103 0.125 10.6606 0.269866 10.4027 0.527728C10.1449 0.785591 10 1.13533 10 1.5V4.9375ZM23.75 1.5V4.9375C23.75 5.30217 23.8949 5.65191 24.1527 5.90977C24.4106 6.16763 24.7603 6.3125 25.125 6.3125C25.4897 6.3125 25.8394 6.16763 26.0973 5.90977C26.3551 5.65191 26.5 5.30217 26.5 4.9375V1.5C26.5 1.13533 26.3551 0.785591 26.0973 0.527728C25.8394 0.269866 25.4897 0.125 25.125 0.125C24.7603 0.125 24.4106 0.269866 24.1527 0.527728C23.8949 0.785591 23.75 1.13533 23.75 1.5ZM36.125 12.5V26.9375C36.123 28.5779 35.4705 30.1506 34.3105 31.3105C33.1506 32.4705 31.5779 33.123 29.9375 33.125H6.5625C4.92209 33.123 3.34943 32.4705 2.18949 31.3105C1.02954 30.1506 0.377001 28.5779 0.375 26.9375V12.5H36.125ZM23.2736 20.2749H20.4349L19.5563 17.5751C19.4658 17.3 19.2909 17.0605 19.0563 16.8907C18.8218 16.7209 18.5396 16.6295 18.25 16.6295C17.9604 16.6295 17.6782 16.7209 17.4437 16.8907C17.2091 17.0605 17.0342 17.3 16.9438 17.5751L16.0665 20.2749H13.2264C12.936 20.2749 12.6531 20.3668 12.4181 20.5374C12.1832 20.7081 12.0083 20.9487 11.9185 21.2249C11.8288 21.5011 11.8287 21.7986 11.9184 22.0747C12.0082 22.3509 12.183 22.5916 12.4179 22.7623L14.7149 24.4309L13.8376 27.1307C13.7479 27.4069 13.7478 27.7044 13.8376 27.9806C13.9273 28.2568 14.1022 28.4975 14.3371 28.6682C14.5721 28.8389 14.8551 28.9308 15.1455 28.9307C15.4359 28.9307 15.7188 28.8387 15.9537 28.6679L18.25 26.9994L20.5462 28.6679C20.7812 28.8387 21.0641 28.9307 21.3545 28.9307C21.6449 28.9308 21.9279 28.8389 22.1629 28.6682C22.3978 28.4975 22.5727 28.2568 22.6624 27.9806C22.7522 27.7044 22.7521 27.4069 22.6624 27.1307L21.7851 24.4309L24.0821 22.7623C24.317 22.5916 24.4918 22.3509 24.5816 22.0747C24.6713 21.7986 24.6712 21.5011 24.5815 21.2249C24.4917 20.9487 24.3168 20.7081 24.0819 20.5374C23.8469 20.3668 23.564 20.2749 23.2736 20.2749Z" fill="#108F1E"/>
</svg>
