<svg width="45" height="44" viewBox="0 0 45 44" fill="none" xmlns="http://www.w3.org/2000/svg">
<path d="M27.75 35.7294C27.0515 36.0099 26.3296 36.245 25.583 36.4169L25.2805 40.3576C25.2618 40.6004 25.1521 40.8272 24.9734 40.9927C24.7947 41.1581 24.5602 41.25 24.3166 41.25H20.182C19.9388 41.25 19.7046 41.1583 19.5262 40.9931C19.3477 40.8279 19.2382 40.6014 19.2195 40.359L18.917 36.4183C17.3227 36.0507 15.8011 35.4192 14.4152 34.5496L11.4109 37.125C11.2261 37.2835 10.9883 37.3663 10.745 37.3569C10.5018 37.3475 10.2711 37.2465 10.0991 37.0741L7.17588 34.1509C7.00384 33.9788 6.90304 33.7481 6.89361 33.505C6.88418 33.2618 6.96681 33.024 7.125 32.8391L9.70038 29.8347C8.83199 28.4483 8.20049 26.9269 7.83175 25.333L3.891 25.0305C3.64844 25.0115 3.42197 24.9017 3.25681 24.723C3.09165 24.5443 2.99995 24.3099 3 24.0666V19.932C3 19.4274 3.38912 19.008 3.891 18.9695L7.83175 18.667C8.19926 17.0727 8.83085 15.5511 9.70038 14.1652L7.12637 11.1609C6.9681 10.9764 6.88528 10.7389 6.89445 10.496C6.90363 10.2531 7.00413 10.0225 7.17588 9.8505L10.0991 6.92725C10.2714 6.75551 10.502 6.65491 10.7451 6.64549C10.9881 6.63606 11.2258 6.71849 11.4109 6.87637L14.4152 9.45175C15.8017 8.58337 17.3231 7.95186 18.917 7.58312L19.2195 3.64237C19.2382 3.39956 19.3479 3.17276 19.5266 3.00732C19.7053 2.84187 19.9398 2.74997 20.1834 2.75H24.318C24.8226 2.75 25.242 3.13912 25.2805 3.641L25.2984 3.87063C24.3135 5.38129 23.7425 7.12409 23.6426 8.92468C23.5427 10.7253 23.9174 12.5205 24.7291 14.1309C23.5947 13.7737 22.3965 13.666 21.2165 13.8152C20.0366 13.9643 18.9029 14.3669 17.893 14.9952C16.8832 15.6235 16.0212 16.4627 15.366 17.4553C14.7108 18.4479 14.278 19.5704 14.0972 20.7459C13.9164 21.9214 13.9919 23.1221 14.3186 24.2657C14.6452 25.4093 15.2152 26.4688 15.9896 27.3715C16.7639 28.2742 17.7243 28.9988 18.8049 29.4956C19.8854 29.9925 21.0607 30.2498 22.25 30.25C24.2817 30.2507 26.2415 29.4977 27.75 28.1366V35.7294Z" fill="#108F1E"/>
<path d="M37.375 16.2092V37.8119C37.375 38.7235 37.0128 39.5979 36.3681 40.2425C35.7235 40.8872 34.8491 41.2494 33.9375 41.2494C33.0258 41.2494 32.1514 40.8872 31.5068 40.2425C30.8621 39.5979 30.5 38.7235 30.5 37.8119V16.2092C29.2796 15.5872 28.2513 14.6451 27.5251 13.4838C26.7989 12.3224 26.4022 10.9854 26.3773 9.61588C26.3525 8.24637 26.7004 6.89587 27.384 5.70889C28.0676 4.52191 29.061 3.54311 30.258 2.87724C30.3638 2.81949 30.5 2.90199 30.5 3.02299V10.9994L33.9375 12.3744L37.375 10.9994V3.02299C37.375 2.90199 37.5111 2.81949 37.617 2.87861C38.8144 3.54397 39.8083 4.52251 40.4922 5.70943C41.1761 6.89636 41.5243 8.24697 41.4994 9.6166C41.4745 10.9862 41.0776 12.3233 40.351 13.4846C39.6245 14.646 38.5957 15.5878 37.375 16.2092Z" fill="#108F1E"/>
</svg>
